<?xml version="1.0" encoding="utf-8"?><svg viewBox="0 0 128 126" xmlns="http://www.w3.org/2000/svg" xmlns:xlink="http://www.w3.org/1999/xlink"><style>:root>svg{display:none}:root>svg:target{display:block}</style><svg viewBox="0 0 128 126" id="favicon" xmlns="http://www.w3.org/2000/svg"><path d="M75.055 96.29C64.873 92.51 54.4 91.927 44.8 94.545c-6.69 1.745-13.09 5.236-18.91 9.6l-4.072 3.491-1.164 1.164 2.619 2.327c.29 0 .29.291.582.582.581.581 1.163.872 2.036 1.454l1.745 1.164 1.746-1.455c.29-.291.872-.872 1.454-1.163 5.237-4.364 11.055-7.273 17.164-8.728 7.855-2.036 16.29-1.745 24.727 1.455 6.982 2.618 21.237 5.818 38.4-1.455l.582-.291.873-.872c0-.291.291-.291.582-.582 1.454-1.746 2.909-3.491 4.072-5.527l5.819-9.019-9.31 5.237c-13.672 7.563-26.181 9.018-38.69 4.363zM35.2 64.873c7.854-2.036 16.29-1.745 24.727 1.455 9.31 3.49 33.164 8.436 59.928-15.71l4.363-4.363.291-.29 1.164-1.164-.582-1.455c-.291-1.163-.873-2.618-1.455-4.073l-1.454-4.072-2.909 2.909c-.291.582-.873.873-1.455 1.454-12.8 13.091-32.582 26.473-55.273 18.328-10.181-3.782-20.654-4.364-30.254-1.746-9.31 2.618-17.455 7.564-25.018 14.546V70.4l-4.364 4.654c0 .291-.29.291-.582.582l-.872.873.29 1.163c.291 1.455.873 2.91 1.164 4.364l1.746 4.655 2.909-3.782c.29-.582.872-.873 1.163-1.455 6.11-5.527 14.546-13.382 26.473-16.582z"/><path d="M6.982 59.636c6.69-6.982 14.254-11.346 22.4-13.673 7.854-2.036 16.29-1.745 24.727 1.454 26.182 9.6 48.873-6.109 58.764-14.545l3.782-3.782 1.454-1.163-1.164-1.746c-.872-.873-1.454-2.036-2.327-3.2l-1.745-2.327-2.037 2.036-1.163 1.164C97.455 35.49 78.546 47.417 57.018 39.272c-10.182-3.782-20.654-4.364-30.254-1.745-6.11 1.745-11.928 4.654-17.746 8.436L2.91 50.908l-1.454 1.455-.582.582v.873C.582 55.854.582 57.89.29 59.636L0 66.908l4.945-5.236c.582-.582 1.164-1.454 2.037-2.036zM83.49 116.074c-.872-.291-1.454-.582-2.326-.873-10.182-3.782-20.655-4.363-30.255-1.745-2.036.582-4.073 1.163-6.109 2.036l-6.982 3.2-1.745.873 5.818 2.036 5.236 1.746.873.291.873-.291c.872-.291 1.745-.873 2.618-.873.582 0 1.163-.291 1.745-.582 6.982-1.745 14.546-1.745 22.691.873.873.291 1.455.582 2.327.873l1.455.581.873-.291c2.036-.581 4.363-1.163 6.109-2.036l8.145-2.909-8.436-2.036c-.873-.291-2.036-.582-2.91-.873zM128 55.855l-4.364 4.363-1.745 1.746c-11.927 11.345-31.127 23.563-52.655 15.418-10.182-3.782-20.654-4.364-30.254-1.746-9.018 2.618-17.164 7.273-24.437 14.255l-3.781 4.073L9.6 95.418l1.164 1.746c.872 1.163 1.454 2.036 2.036 3.2l1.745 2.618 2.037-2.618 1.163-1.164c6.982-7.564 14.546-12.218 23.273-14.546 7.855-2.036 16.291-1.745 24.727 1.455 7.273 2.618 14.837 3.49 22.4 2.618 13.382-1.454 26.764-9.018 36.655-17.454.582-.582 1.164-.873 1.745-1.455l.873-.873v-.872c0-1.746.291-3.782.291-5.528l.291-6.69z"/><path d="M17.454 29.092c1.746-.873 3.782-1.454 5.528-2.036 7.854-2.037 16.29-1.746 24.727 1.454 5.527 2.037 11.055 2.91 17.164 2.91 12.218 0 24.436-4.364 35.782-12.8l4.363-3.492 1.455-1.163-2.618-2.037c-.873-.872-2.037-1.745-3.2-2.327l-1.746-1.164-1.454 1.164c-.582.291-.873.873-1.455 1.164C80.582 22.4 65.164 25.6 50.618 20.074c-10.473-3.782-20.945-4.655-31.418-1.455-.873.291-1.745.582-2.91.873l-.58.291-.874.873c0 .29-.29.29-.581.582-1.164 1.745-2.619 3.2-3.782 4.945l-5.528 8.436 9.019-4.654c1.454 0 2.618-.582 3.49-.873zM41.31 9.309l.872.291c3.782 1.455 9.6 2.91 16.872 2.91 7.564 0 14.837-1.746 22.11-4.656l9.018-4.363-6.11-2.036C82.328.873 80.583.29 78.546 0h-.872L76.8.29c-.873.292-1.745.874-2.618 1.165-8.728 3.2-17.455 3.781-25.891 1.454-.873-.29-1.745-.582-2.618-.873l-.873-.29-.873.29c-1.745.582-3.49 1.164-5.236 2.037L32 6.982l6.982 2.036c.582-.29 1.454 0 2.327.291z"/></svg></svg>