<svg width="128" height="126" viewBox="0 0 128 126" fill="none" xmlns="http://www.w3.org/2000/svg">
<path d="M75.0545 96.2904C64.8727 92.5086 54.4 91.9268 44.8 94.545C38.1091 96.2904 31.7091 99.7813 25.8909 104.145L21.8181 107.636L20.6545 108.8L23.2727 111.127C23.5636 111.127 23.5636 111.418 23.8545 111.709C24.4364 112.29 25.0182 112.581 25.8909 113.163L27.6363 114.327L29.3818 112.872C29.6727 112.581 30.2545 112 30.8363 111.709C36.0727 107.345 41.8909 104.436 48 102.981C55.8545 100.945 64.2909 101.236 72.7272 104.436C79.7091 107.054 93.9636 110.254 111.127 102.981L111.709 102.69L112.582 101.818C112.582 101.527 112.873 101.527 113.164 101.236C114.618 99.4904 116.073 97.745 117.236 95.7086L123.055 86.6904L113.745 91.9268C100.073 99.4904 87.5636 100.945 75.0545 96.2904Z" fill="#3172FF"/>
<path d="M35.2 64.8734C43.0545 62.837 51.4909 63.1279 59.9272 66.3279C69.2363 69.8189 93.0909 74.7643 119.855 50.6189L124.218 46.2552L124.509 45.9643L125.673 44.8007L125.091 43.3461C124.8 42.1825 124.218 40.728 123.636 39.2734L122.182 35.2007L119.273 38.1098C118.982 38.6916 118.4 38.9825 117.818 39.5643C105.018 52.6552 85.2363 66.037 62.5454 57.8916C52.3636 54.1098 41.8909 53.5279 32.2909 56.1461C22.9818 58.7643 14.8363 63.7098 7.2727 70.6916V70.4007L2.90906 75.0552C2.90906 75.3461 2.6182 75.3461 2.32729 75.637L1.45451 76.5098L1.74544 77.6734C2.03635 79.1279 2.61815 80.5825 2.90906 82.037L4.65454 86.6916L7.56363 82.9098C7.85454 82.3279 8.43633 82.037 8.72724 81.4552C14.8363 75.9279 23.2727 68.0734 35.2 64.8734Z" fill="#3172FF"/>
<path d="M6.98188 59.6357C13.6728 52.6539 21.2364 48.2902 29.3818 45.963C37.2364 43.9266 45.6727 44.2175 54.1091 47.4175C80.2909 57.0175 102.982 41.3084 112.873 32.8721L116.655 29.0902L118.109 27.9265L116.945 26.1811C116.073 25.3084 115.491 24.1447 114.618 22.9811L112.873 20.6538L110.836 22.6902C110.545 22.9811 109.964 23.5629 109.673 23.8538C97.4546 35.4902 78.5455 47.4175 57.0182 39.2721C46.8364 35.4902 36.3636 34.9084 26.7637 37.5266C20.6546 39.2721 14.8364 42.1811 9.01821 45.963L2.90909 50.9084C2.32727 51.4902 2.03636 51.7811 1.45455 52.363L0.87278 52.9448V53.8175C0.581871 55.8539 0.581836 57.8902 0.290927 59.6357L0 66.9084L4.94548 61.6721C5.5273 61.0902 6.10915 60.2175 6.98188 59.6357Z" fill="#3172FF"/>
<path d="M83.4909 116.074C82.6181 115.783 82.0363 115.492 81.1636 115.201C70.9818 111.419 60.509 110.838 50.909 113.456C48.8727 114.038 46.8363 114.619 44.8 115.492L37.8181 118.692L36.0727 119.565L41.8909 121.601C43.6363 122.183 45.3818 122.765 47.1272 123.347L48 123.638L48.8727 123.347C49.7454 123.056 50.6181 122.474 51.4909 122.474C52.0727 122.474 52.6545 122.183 53.2363 121.892C60.2181 120.147 67.7818 120.147 75.9272 122.765C76.8 123.056 77.3818 123.347 78.2545 123.638L79.709 124.219L80.5818 123.928C82.6181 123.347 84.9454 122.765 86.6909 121.892L94.8363 118.983L86.4 116.947C85.5272 116.656 84.3636 116.365 83.4909 116.074Z" fill="#3172FF"/>
<path d="M128 55.8545L123.636 60.2181C123.054 60.7999 122.473 61.3818 121.891 61.9636C109.964 73.309 90.7636 85.5272 69.2363 77.3818C59.0545 73.5999 48.5818 73.0181 38.9818 75.6363C29.9636 78.2545 21.8181 82.909 14.5454 89.8908L10.7636 93.9636L9.60002 95.4181L10.7636 97.1636C11.6364 98.3272 12.2182 99.1999 12.8 100.364L14.5454 102.982L16.5818 100.364C16.8727 100.073 17.4545 99.4908 17.7454 99.1999C24.7273 91.6363 32.2909 86.9818 41.0181 84.6545C48.8727 82.6181 57.309 82.909 65.7454 86.109C73.0181 88.7272 80.5818 89.5999 88.1454 88.7272C101.527 87.2727 114.909 79.709 124.8 71.2727C125.382 70.6908 125.964 70.3999 126.545 69.8181L127.418 68.9454V68.0727C127.418 66.3272 127.709 64.2909 127.709 62.5454L128 55.8545Z" fill="#3172FF"/>
<path d="M17.4545 29.0921C19.2 28.2193 21.2364 27.6375 22.9819 27.0557C30.8364 25.0193 39.2727 25.3102 47.7091 28.5102C53.2364 30.5466 58.7636 31.4193 64.8727 31.4193C77.0909 31.4193 89.3091 27.0557 100.655 18.6193L105.018 15.1284L106.473 13.9648L103.855 11.9284C102.982 11.0557 101.818 10.183 100.655 9.60114L98.9091 8.4375L97.4546 9.60114C96.8727 9.89204 96.5818 10.4738 96 10.7647C80.5818 22.4011 65.1636 25.6011 50.6182 20.0739C40.1455 16.292 29.6727 15.4193 19.2 18.6193C18.3273 18.9102 17.4546 19.2011 16.2909 19.492L15.7091 19.783L14.8364 20.6556C14.8364 20.9466 14.5455 20.9466 14.2546 21.2375C13.091 22.983 11.6364 24.4375 10.4728 26.183L4.94548 34.6193L13.9637 29.9648C15.4182 29.9648 16.5818 29.383 17.4545 29.0921Z" fill="#3172FF"/>
<path d="M41.3091 9.30903L42.1818 9.59997C45.9636 11.0545 51.7818 12.5091 59.0545 12.5091C66.6182 12.5091 73.8909 10.7636 81.1636 7.85449L90.1818 3.49085L84.0727 1.45455C82.3273 0.872727 80.5818 0.290909 78.5454 0H77.6727L76.8 0.290838C75.9273 0.581748 75.0545 1.16364 74.1818 1.45455C65.4545 4.65455 56.7273 5.23636 48.2909 2.90909C47.4182 2.61818 46.5455 2.32722 45.6727 2.03631L44.8 1.74538L43.9273 2.03631C42.1818 2.61813 40.4364 3.19997 38.6909 4.0727L32 6.98179L38.9818 9.01812C39.5636 8.72722 40.4364 9.01812 41.3091 9.30903Z" fill="#3172FF"/>
</svg>
